<svg xmlns="http://www.w3.org/2000/svg" viewBox="0 0 1440 320">
    <path fill="#fff" fill-opacity="1" d="M0,256L75.8,32L151.6,64L227.4,192L303.2,64L378.9,224L454.7,256L530.5,32L606.3,32L682.1,288L757.9,192L833.7,192L909.5,160L985.3,192L1061.1,64L1136.8,320L1212.6,32L1288.4,288L1364.2,160L1440,96L1440,320L1364.2,320L1288.4,320L1212.6,320L1136.8,320L1061.1,320L985.3,320L909.5,320L833.7,320L757.9,320L682.1,320L606.3,320L530.5,320L454.7,320L378.9,320L303.2,320L227.4,320L151.6,320L75.8,320L0,320Z"></path>
  </svg>